<svg width="480" height="106" viewBox="0 0 480 106" fill="none" xmlns="http://www.w3.org/2000/svg">
<path d="M153.8 50C153.8 29.3 166.6 15 185 15C199.3 15 209.7 23.6 209.7 35.3C209.7 42.8 205.5 47.9 199.2 47.9C187.5 47.9 192.9 30.5 184.8 30.5C179.8 30.5 176 37.5 176 46.7C176 57.5 181.3 63.3 189.8 63.3C198.4 63.3 201 57.3 206.5 57.3C209.7 57.3 211 59.4 210.6 63.9C209.5 76 198.7 84.5 184.5 84.5C166.3 84.5 153.8 70.4 153.8 50ZM261.659 59.2C261.659 68.5 267.159 66 267.159 72.1C267.159 78.7 260.759 84.3 253.159 84.3C242.859 84.3 244.759 74 242.859 74C240.959 74 242.359 84.5 229.259 84.5C219.859 84.5 213.859 79.1 213.859 70.8C213.859 60.3 223.259 53.8 238.359 53.8C240.959 53.8 241.659 53.6 241.659 52.9V50.2C241.659 46 241.059 44.5 239.459 44.5C235.559 44.5 234.459 52.8 224.559 52.8C219.159 52.8 216.059 50.3 216.059 45.9C216.059 38.1 225.959 32.5 239.759 32.5C254.259 32.5 262.159 38.6 262.159 49.9C262.159 52.7 261.659 55.9 261.659 59V59.2ZM238.059 69.9C240.359 69.9 241.659 67.3 241.659 62.8V61.8C241.659 60.6 241.259 60.3 239.659 60.3C235.959 60.3 233.859 62 233.859 64.8C233.859 67.5 235.859 69.9 238.059 69.9ZM309.325 57.9C301.325 57.9 302.625 50.6 298.625 50.6C296.225 50.6 295.125 53.4 295.125 61.3C295.125 68.6 301.625 69.8 301.625 74.9C301.625 81.6 298.725 84.2 291.625 84C287.525 83.9 283.225 83.9 279.125 84C272.325 84.2 269.125 81.3 269.125 74.9C269.125 69.8 274.625 68.6 274.625 62.3V54.7C274.625 48.4 269.125 47.2 269.125 42.1C269.125 35.7 274.125 32.8 285.125 32.8C291.825 32.8 294.125 34.3 294.125 38.7V41.8C294.125 43.2 294.325 43.9 294.825 43.9C297.025 43.9 296.325 32.7 307.725 32.7C315.025 32.7 319.025 37.2 319.025 45.6C319.025 53.5 315.525 57.9 309.325 57.9ZM327.785 37.2C327.785 30.9 321.785 29.7 321.785 24.6C321.785 18.3 324.885 15.5 331.785 15.5H338.985C343.485 15.5 346.185 16.7 347.885 19.4L365.585 47.5C366.385 48.8 367.085 48.4 367.085 46.9V38.2C367.085 30.9 360.085 29.7 360.085 24.6C360.085 18.3 363.185 15.5 370.085 15.5H377.285C384.185 15.5 387.285 18.3 387.285 24.6C387.285 29.7 381.285 30.9 381.285 37.2V62.6C381.285 68.7 381.785 72.4 381.785 74.9C381.785 81.4 378.385 84.3 370.985 84.3C366.085 84.3 363.385 83 361.185 79.5L343.485 51.3C342.685 50.1 341.985 50.5 341.985 52V61.3C341.985 68.6 348.985 69.8 348.985 74.9C348.985 81.2 345.885 84 338.985 84H331.785C324.885 84 321.785 81.2 321.785 74.9C321.785 69.8 327.785 68.6 327.785 62.3V37.2ZM389.152 57.6C389.152 42.1 399.452 32.5 414.452 32.5C428.252 32.5 437.852 40.6 437.852 52C437.852 58.5 434.752 60.5 424.452 60.5C419.252 60.5 415.552 60 413.352 60C411.352 60 410.752 60.4 410.752 61.7C410.752 65 414.452 67 420.452 67C427.852 67 431.452 64 434.252 64C436.352 64 437.352 65.6 437.052 68.8C436.252 77.7 426.452 84.5 414.652 84.5C399.452 84.5 389.152 73.2 389.152 57.6ZM409.452 50.8C409.452 52.6 411.152 53.5 414.252 53.5C417.252 53.5 418.352 52.6 418.352 50.1C418.352 46.7 416.452 44 414.152 44C411.852 44 409.452 47.5 409.452 50.8ZM444.091 47.1C441.991 47.1 440.291 44.9 440.291 41.3C440.291 35.4 444.791 35.5 446.591 33.3C449.191 30 450.291 21.6 458.691 21.6C462.591 21.6 463.891 23.4 464.591 28.2C465.191 32.8 466.191 32.9 468.791 32.9C474.091 32.9 476.291 34.9 476.291 39.7C476.291 44 474.291 46.6 470.791 46.6C467.291 46.6 465.691 46.2 465.791 49.5L466.091 62.2C466.191 68.2 469.891 67 472.991 67C476.891 67 478.691 68.8 478.691 72.5C478.691 79.6 472.191 84.5 462.591 84.5C451.891 84.5 445.291 78.4 445.291 68.4C445.291 65.6 445.791 57.9 445.791 52.3C445.791 48 445.491 47.1 444.091 47.1Z" fill="#2563EB"/>
<path d="M36.2515 1.10058C33.828 1.8785 31.6738 3.43434 29.9983 5.61849C29.5495 6.18697 27.6346 10.675 25.7197 15.5818C23.2363 21.8351 22.0695 24.4381 21.7703 24.4082C21.5309 24.3783 20.6034 24.1389 19.7058 23.8697C18.5389 23.5405 16.654 23.4209 12.8242 23.4209C7.73781 23.4209 7.49845 23.4508 6.00245 24.1988C1.21526 26.5924 1.09558 33.3244 5.79301 35.9274C6.48117 36.3164 7.79765 36.466 11.388 36.5856L16.1154 36.7352L12.884 39.6375C11.1188 41.2232 8.06693 43.916 6.09221 45.6215C2.41206 48.793 0.856221 50.7677 0.227902 53.1015C0.0483819 53.7896 -0.041378 59.6539 0.0184619 68.5102L0.108222 82.812L1.06566 84.8166C2.23254 87.3299 4.32693 89.4542 6.69061 90.6211L8.48581 91.4888L20.364 91.5785L32.2123 91.6683L32.691 90.3817C32.9603 89.6636 34.0374 86.7614 35.0846 83.8891C36.1618 81.0168 37.2987 78.3838 37.6578 78.0547L38.2861 77.4264H67.2785C96.2111 77.4264 96.2709 77.4264 96.8993 78.0547C97.2583 78.4137 98.4551 81.3459 99.7117 85.0859L101.926 91.4888H113.684H125.473L127.118 90.6809C129.332 89.5739 130.739 88.3771 131.965 86.4921C134 83.3804 134 83.5001 134 68.0315C134 59.8933 133.88 53.64 133.701 53.0416C133.013 50.5882 131.547 48.793 126.789 44.664C124.216 42.45 121.134 39.7272 119.908 38.5903L117.724 36.5856H122.271C127.268 36.5856 128.166 36.3762 129.632 34.9101C132.414 32.0976 132.265 27.4002 129.303 24.9468C127.597 23.5405 126.311 23.3311 120.027 23.4807C115.569 23.5705 114.163 23.7201 113.236 24.109C112.577 24.4082 111.949 24.5279 111.829 24.4082C111.71 24.2586 110.184 20.4588 108.418 15.9409C106.653 11.423 104.918 7.17433 104.529 6.51609C103.452 4.63113 101.417 2.7761 99.2929 1.75882L97.3481 0.831299L67.4281 0.771459C43.2827 0.741539 37.2688 0.801379 36.2515 1.10058ZM97.8268 6.81529C98.5149 7.29401 99.3527 8.07193 99.6818 8.49081C99.981 8.93961 102.704 15.4023 105.726 22.8524L111.201 36.436L89.0902 36.5258C76.9127 36.5557 57.0459 36.5557 44.8685 36.5258L22.7576 36.436L28.0834 23.2713C30.9856 16.0306 33.5886 9.68761 33.8579 9.17897C34.4264 8.07193 35.9224 6.75545 37.209 6.18697C37.927 5.85785 43.6717 5.79801 67.3383 5.85785L96.5402 5.91769L97.8268 6.81529ZM29.8187 54.029C30.8959 55.0163 37.0594 64.5608 37.0594 65.249C37.0594 66.3859 36.5208 67.0741 35.324 67.4032C33.9178 67.7922 20.5435 67.7922 17.761 67.4032C13.7218 66.8048 10.1912 64.2616 8.51573 60.7011C7.64805 58.876 7.22917 56.3328 7.55829 54.9864C7.94725 53.4306 8.72517 53.3408 19.4365 53.4306C28.3826 53.4904 29.2802 53.5503 29.8187 54.029ZM94.4757 53.6699C95.5229 54.029 96.0017 54.7171 96.0017 55.884C96.0017 56.3627 94.745 58.5469 92.501 61.8979C89.3894 66.5056 88.8807 67.1339 87.9233 67.4032C86.517 67.7922 47.4416 67.7922 46.0054 67.4032C45.0779 67.1339 44.5693 66.5355 41.4277 61.8381C38.3459 57.2005 37.927 56.4226 38.0168 55.4651C38.0766 54.5675 38.2861 54.2983 39.1538 53.8794C40.1411 53.3707 42.0859 53.3408 66.8596 53.3408C85.5596 53.3408 93.7876 53.4306 94.4757 53.6699ZM125.174 53.7597C126.4 54.2683 126.67 55.0762 126.43 57.38C126.071 60.8208 123.289 64.6805 119.938 66.2962C117.604 67.4331 115.121 67.7024 106.922 67.7024C99.5621 67.7024 98.0362 67.5229 97.3181 66.5954C96.5103 65.5182 96.8693 64.6206 100.22 59.5642C103.691 54.3581 104.14 53.7896 105.127 53.5503C105.456 53.4904 109.885 53.4007 114.941 53.3707C122.331 53.3408 124.336 53.4306 125.174 53.7597Z" fill="#2563EB"/>
<path d="M40.5302 82.0041C40.3806 82.2734 37.0594 91.3392 37.0594 91.5187C37.0594 91.5785 50.5833 91.6384 67.129 91.6384C83.6747 91.6384 97.1986 91.5785 97.1986 91.5187C97.1986 91.399 94.3562 83.0813 94.057 82.2734C93.8475 81.7947 92.2917 81.7648 67.2786 81.7648C52.6477 81.7648 40.6199 81.8845 40.5302 82.0041Z" fill="#2563EB"/>
<path d="M2.41204 97.2932C2.5018 101.392 2.53172 101.482 3.3994 102.739C3.90804 103.457 4.89539 104.444 5.61347 104.953L6.90003 105.85L16.0555 105.94C22.219 106 25.6299 105.94 26.3779 105.701C27.8739 105.252 29.8486 103.487 30.5368 101.901C30.836 101.243 31.1651 99.6569 31.2848 98.4003L31.4643 96.1263H20.3341C9.23379 96.1263 9.17395 96.1263 6.95987 95.3783C5.73315 94.9595 4.17732 94.2713 3.51908 93.8524L2.29236 93.1044L2.41204 97.2932Z" fill="#2563EB"/>
<path d="M130.35 93.9123C129.721 94.3013 128.225 94.9595 126.999 95.3784C124.785 96.1264 124.725 96.1264 113.624 96.1264H102.494L102.674 98.4003C102.913 101.183 103.631 102.858 105.127 104.175C107.192 105.97 107.371 106 117.305 106C127.567 106 127.896 105.94 129.961 103.517C131.397 101.841 131.666 100.734 131.547 96.6949L131.457 93.2242L130.35 93.9123Z" fill="#2563EB"/>
</svg>
