<svg width="480" height="106" viewBox="0 0 480 106" fill="none" xmlns="http://www.w3.org/2000/svg">
<path d="M153.8 49.2355C153.8 28.5355 166.6 14.2355 185 14.2355C199.3 14.2355 209.7 22.8355 209.7 34.5355C209.7 42.0355 205.5 47.1355 199.2 47.1355C187.5 47.1355 192.9 29.7355 184.8 29.7355C179.8 29.7355 176 36.7355 176 45.9355C176 56.7355 181.3 62.5355 189.8 62.5355C198.4 62.5355 201 56.5355 206.5 56.5355C209.7 56.5355 211 58.6355 210.6 63.1355C209.5 75.2355 198.7 83.7355 184.5 83.7355C166.3 83.7355 153.8 69.6355 153.8 49.2355ZM261.659 58.4355C261.659 67.7355 267.159 65.2355 267.159 71.3355C267.159 77.9355 260.759 83.5355 253.159 83.5355C242.859 83.5355 244.759 73.2355 242.859 73.2355C240.959 73.2355 242.359 83.7355 229.259 83.7355C219.859 83.7355 213.859 78.3355 213.859 70.0355C213.859 59.5355 223.259 53.0355 238.359 53.0355C240.959 53.0355 241.659 52.8355 241.659 52.1355V49.4355C241.659 45.2355 241.059 43.7355 239.459 43.7355C235.559 43.7355 234.459 52.0355 224.559 52.0355C219.159 52.0355 216.059 49.5355 216.059 45.1355C216.059 37.3355 225.959 31.7355 239.759 31.7355C254.259 31.7355 262.159 37.8355 262.159 49.1355C262.159 51.9355 261.659 55.1355 261.659 58.2355V58.4355ZM238.059 69.1355C240.359 69.1355 241.659 66.5355 241.659 62.0355V61.0355C241.659 59.8355 241.259 59.5355 239.659 59.5355C235.959 59.5355 233.859 61.2355 233.859 64.0355C233.859 66.7355 235.859 69.1355 238.059 69.1355ZM309.325 57.1355C301.325 57.1355 302.625 49.8355 298.625 49.8355C296.225 49.8355 295.125 52.6355 295.125 60.5355C295.125 67.8355 301.625 69.0355 301.625 74.1355C301.625 80.8355 298.725 83.4355 291.625 83.2355C287.525 83.1355 283.225 83.1355 279.125 83.2355C272.325 83.4355 269.125 80.5355 269.125 74.1355C269.125 69.0355 274.625 67.8355 274.625 61.5355V53.9355C274.625 47.6355 269.125 46.4355 269.125 41.3355C269.125 34.9355 274.125 32.0355 285.125 32.0355C291.825 32.0355 294.125 33.5355 294.125 37.9355V41.0355C294.125 42.4355 294.325 43.1355 294.825 43.1355C297.025 43.1355 296.325 31.9355 307.725 31.9355C315.025 31.9355 319.025 36.4355 319.025 44.8355C319.025 52.7355 315.525 57.1355 309.325 57.1355ZM327.785 36.4355C327.785 30.1355 321.785 28.9355 321.785 23.8355C321.785 17.5355 324.885 14.7355 331.785 14.7355H338.985C343.485 14.7355 346.185 15.9355 347.885 18.6355L365.585 46.7355C366.385 48.0355 367.085 47.6355 367.085 46.1355V37.4355C367.085 30.1355 360.085 28.9355 360.085 23.8355C360.085 17.5355 363.185 14.7355 370.085 14.7355H377.285C384.185 14.7355 387.285 17.5355 387.285 23.8355C387.285 28.9355 381.285 30.1355 381.285 36.4355V61.8355C381.285 67.9355 381.785 71.6355 381.785 74.1355C381.785 80.6355 378.385 83.5355 370.985 83.5355C366.085 83.5355 363.385 82.2355 361.185 78.7355L343.485 50.5355C342.685 49.3355 341.985 49.7355 341.985 51.2355V60.5355C341.985 67.8355 348.985 69.0355 348.985 74.1355C348.985 80.4355 345.885 83.2355 338.985 83.2355H331.785C324.885 83.2355 321.785 80.4355 321.785 74.1355C321.785 69.0355 327.785 67.8355 327.785 61.5355V36.4355ZM389.152 56.8355C389.152 41.3355 399.452 31.7355 414.452 31.7355C428.252 31.7355 437.852 39.8355 437.852 51.2355C437.852 57.7355 434.752 59.7355 424.452 59.7355C419.252 59.7355 415.552 59.2355 413.352 59.2355C411.352 59.2355 410.752 59.6355 410.752 60.9355C410.752 64.2355 414.452 66.2355 420.452 66.2355C427.852 66.2355 431.452 63.2355 434.252 63.2355C436.352 63.2355 437.352 64.8355 437.052 68.0355C436.252 76.9355 426.452 83.7355 414.652 83.7355C399.452 83.7355 389.152 72.4355 389.152 56.8355ZM409.452 50.0355C409.452 51.8355 411.152 52.7355 414.252 52.7355C417.252 52.7355 418.352 51.8355 418.352 49.3355C418.352 45.9355 416.452 43.2355 414.152 43.2355C411.852 43.2355 409.452 46.7355 409.452 50.0355ZM444.091 46.3355C441.991 46.3355 440.291 44.1355 440.291 40.5355C440.291 34.6355 444.791 34.7355 446.591 32.5355C449.191 29.2355 450.291 20.8355 458.691 20.8355C462.591 20.8355 463.891 22.6355 464.591 27.4355C465.191 32.0355 466.191 32.1355 468.791 32.1355C474.091 32.1355 476.291 34.1355 476.291 38.9355C476.291 43.2355 474.291 45.8355 470.791 45.8355C467.291 45.8355 465.691 45.4355 465.791 48.7355L466.091 61.4355C466.191 67.4355 469.891 66.2355 472.991 66.2355C476.891 66.2355 478.691 68.0355 478.691 71.7355C478.691 78.8355 472.191 83.7355 462.591 83.7355C451.891 83.7355 445.291 77.6355 445.291 67.6355C445.291 64.8355 445.791 57.1355 445.791 51.5355C445.791 47.2355 445.491 46.3355 444.091 46.3355Z" fill="white"/>
<path d="M36.2515 0.336052C33.828 1.11397 31.6738 2.66981 29.9983 4.85397C29.5495 5.42244 27.6346 9.91044 25.7197 14.8173C23.2363 21.0706 22.0695 23.6736 21.7703 23.6437C21.5309 23.6138 20.6034 23.3744 19.7058 23.1051C18.5389 22.776 16.654 22.6563 12.8242 22.6563C7.73781 22.6563 7.49845 22.6863 6.00245 23.4343C1.21526 25.8279 1.09558 32.5598 5.79301 35.1629C6.48117 35.5518 7.79765 35.7014 11.388 35.8211L16.1154 35.9707L12.884 38.873C11.1188 40.4587 8.06693 43.1515 6.09221 44.8569C2.41206 48.0285 0.856221 50.0032 0.227902 52.3369C0.0483819 53.0251 -0.041378 58.8894 0.0184619 67.7457L0.108222 82.0474L1.06566 84.0521C2.23254 86.5654 4.32693 88.6897 6.69061 89.8565L8.48581 90.7242L20.364 90.814L32.2123 90.9037L32.691 89.6172C32.9603 88.8991 34.0374 85.9969 35.0846 83.1246C36.1618 80.2522 37.2987 77.6193 37.6578 77.2902L38.2861 76.6619H67.2785C96.2111 76.6619 96.2709 76.6619 96.8993 77.2902C97.2583 77.6492 98.4551 80.5814 99.7117 84.3214L101.926 90.7242H113.684H125.473L127.118 89.9164C129.332 88.8094 130.739 87.6126 131.965 85.7276C134 82.6159 134 82.7356 134 67.267C134 59.1288 133.88 52.8755 133.701 52.2771C133.013 49.8237 131.547 48.0285 126.789 43.8995C124.216 41.6854 121.134 38.9627 119.908 37.8258L117.724 35.8211H122.271C127.268 35.8211 128.166 35.6117 129.632 34.1456C132.414 31.3331 132.265 26.6357 129.303 24.1823C127.597 22.776 126.311 22.5666 120.027 22.7162C115.569 22.8059 114.163 22.9555 113.236 23.3445C112.577 23.6437 111.949 23.7634 111.829 23.6437C111.71 23.4941 110.184 19.6943 108.418 15.1763C106.653 10.6584 104.918 6.4098 104.529 5.75156C103.452 3.86661 101.417 2.01157 99.2929 0.994291L97.3481 0.0667728L67.4281 0.00693291C43.2827 -0.022987 37.2688 0.0368529 36.2515 0.336052ZM97.8268 6.05076C98.5149 6.52948 99.3527 7.3074 99.6818 7.72628C99.981 8.17508 102.704 14.6378 105.726 22.0879L111.201 35.6715L89.0902 35.7613C76.9127 35.7912 57.0459 35.7912 44.8685 35.7613L22.7576 35.6715L28.0834 22.5067C30.9856 15.2661 33.5886 8.92308 33.8579 8.41444C34.4264 7.3074 35.9224 5.99092 37.209 5.42244C37.927 5.09332 43.6717 5.03348 67.3383 5.09332L96.5402 5.15316L97.8268 6.05076ZM29.8187 53.2644C30.8959 54.2518 37.0594 63.7963 37.0594 64.4844C37.0594 65.6214 36.5208 66.3095 35.324 66.6387C33.9178 67.0276 20.5435 67.0276 17.761 66.6387C13.7218 66.0403 10.1912 63.4971 8.51573 59.9366C7.64805 58.1115 7.22917 55.5683 7.55829 54.2219C7.94725 52.666 8.72517 52.5763 19.4365 52.666C28.3826 52.7259 29.2802 52.7857 29.8187 53.2644ZM94.4757 52.9054C95.5229 53.2644 96.0017 53.9526 96.0017 55.1195C96.0017 55.5982 94.745 57.7824 92.501 61.1334C89.3894 65.7411 88.8807 66.3694 87.9233 66.6387C86.517 67.0276 47.4416 67.0276 46.0054 66.6387C45.0779 66.3694 44.5693 65.771 41.4277 61.0736C38.3459 56.436 37.927 55.658 38.0168 54.7006C38.0766 53.803 38.2861 53.5337 39.1538 53.1148C40.1411 52.6062 42.0859 52.5763 66.8596 52.5763C85.5596 52.5763 93.7876 52.666 94.4757 52.9054ZM125.174 52.9952C126.4 53.5038 126.67 54.3116 126.43 56.6155C126.071 60.0563 123.289 63.916 119.938 65.5316C117.604 66.6686 115.121 66.9379 106.922 66.9379C99.5621 66.9379 98.0362 66.7583 97.3181 65.8308C96.5103 64.7537 96.8693 63.8561 100.22 58.7996C103.691 53.5936 104.14 53.0251 105.127 52.7857C105.456 52.7259 109.885 52.6361 114.941 52.6062C122.331 52.5763 124.336 52.666 125.174 52.9952Z" fill="white"/>
<path d="M40.5302 81.2396C40.3806 81.5089 37.0594 90.5746 37.0594 90.7542C37.0594 90.814 50.5833 90.8738 67.129 90.8738C83.6747 90.8738 97.1986 90.814 97.1986 90.7542C97.1986 90.6345 94.3562 82.3167 94.057 81.5089C93.8475 81.0302 92.2917 81.0003 67.2786 81.0003C52.6477 81.0003 40.6199 81.1199 40.5302 81.2396Z" fill="white"/>
<path d="M2.41204 96.5287C2.5018 100.628 2.53172 100.717 3.3994 101.974C3.90804 102.692 4.89539 103.68 5.61347 104.188L6.90003 105.086L16.0555 105.176C22.219 105.235 25.6299 105.176 26.3779 104.936C27.8739 104.487 29.8486 102.722 30.5368 101.136C30.836 100.478 31.1651 98.8924 31.2848 97.6357L31.4643 95.3618H20.3341C9.23379 95.3618 9.17395 95.3618 6.95987 94.6138C5.73315 94.1949 4.17732 93.5068 3.51908 93.0879L2.29236 92.3399L2.41204 96.5287Z" fill="white"/>
<path d="M130.35 93.1478C129.721 93.5368 128.225 94.195 126.999 94.6139C124.785 95.3619 124.725 95.3619 113.624 95.3619H102.494L102.674 97.6358C102.913 100.418 103.631 102.094 105.127 103.41C107.192 105.206 107.371 105.235 117.305 105.235C127.567 105.235 127.896 105.176 129.961 102.752C131.397 101.077 131.666 99.9696 131.547 95.9304L131.457 92.4597L130.35 93.1478Z" fill="white"/>
</svg>
